<svg xmlns="http://www.w3.org/2000/svg" width="15.652" height="16.5" viewBox="0 0 15.652 16.5">
  <path id="dns_FILL0_wght400_GRAD0_opsz48" d="M9.63,8.7a1.076,1.076,0,1,0,.772.315A1.05,1.05,0,0,0,9.63,8.7Zm0,9a1.076,1.076,0,1,0,.772.315A1.05,1.05,0,0,0,9.63,17.7ZM6.739,6.05H20.891a.711.711,0,0,1,.761.761v5.848a.984.984,0,0,1-.207.63.671.671,0,0,1-.554.261H6.739a.649.649,0,0,1-.533-.261A.984.984,0,0,1,6,12.659V6.811a.749.749,0,0,1,.207-.554A.721.721,0,0,1,6.739,6.05Zm.565,1.3v4.891H20.348V7.354Zm-.565,7.674H20.8a.8.8,0,0,1,.587.272.87.87,0,0,1,.261.62v5.739a.834.834,0,0,1-.261.663.868.868,0,0,1-.587.228H6.848A.822.822,0,0,1,6,21.659V15.92a1,1,0,0,1,.207-.62A.64.64,0,0,1,6.739,15.028Zm.565,1.3v4.913H20.348V16.333Zm0-8.978v0Zm0,8.978v0Z" transform="translate(-6 -6.05)"/>
</svg>
