<svg xmlns="http://www.w3.org/2000/svg" xmlns:xlink="http://www.w3.org/1999/xlink" width="506.249" height="227.841" viewBox="0 0 506.249 227.841">
  <defs>
    <clipPath id="clip-path">
      <path id="Path_1643" data-name="Path 1643" d="M126.858,198.945a10.737,10.737,0,0,0-7.968-2.785c-.046,0-.091.006-.138.011-4.621.378-6.04-6.648.091-8.1s13.283,1.872,15.093,6.829C135.518,199.242,131.1,202.754,126.858,198.945Z" transform="translate(-114.75 -187.733)" fill="none"/>
    </clipPath>
  </defs>
  <g id="Group_8842" data-name="Group 8842" transform="translate(-429.876 -211.983)">
    <ellipse id="Ellipse_223" data-name="Ellipse 223" cx="46.276" cy="9.532" rx="46.276" ry="9.532" transform="translate(452.919 420.76)" fill="#b7b7b7" opacity="0.42" style="mix-blend-mode: multiply;isolation: isolate"/>
    <path id="Path_1622" data-name="Path 1622" d="M469.461,292.56c0,5.265-20.719,9.532-46.276,9.532s-46.277-4.267-46.277-9.532,20.719-9.533,46.277-9.533S469.461,287.295,469.461,292.56Z" transform="translate(458.059 132.835)" fill="#b7b7b7" opacity="0.42" style="mix-blend-mode: multiply;isolation: isolate"/>
    <g id="Group_8651" data-name="Group 8651" transform="translate(429.875 222.949)">
      <g id="Group_8645" data-name="Group 8645" transform="translate(81.85 140.741)">
        <path id="Path_1624" data-name="Path 1624" d="M125.112,242.522s-8.2-5.773-10.181,3.482a64.852,64.852,0,0,1,2.9,14.547c3.418.7,6.783,1.507,10.072,2.406C127.9,254.252,127.218,246.3,125.112,242.522Z" transform="translate(-114.931 -240.743)" fill="#d67c22"/>
        <path id="Path_1625" data-name="Path 1625" d="M130.655,295.673l-5.024-2.216A330.636,330.636,0,0,0,127.89,259.2c-3.289-.9-6.654-1.709-10.072-2.406a122.26,122.26,0,0,1-1.509,33.823s-3.223,8.653.339,12.253,6.734,2.353,11.231,4.153,12.031,2.215,15.073-2.908S139.779,290.273,130.655,295.673Z" transform="translate(-114.921 -236.989)" fill="#e28e33"/>
      </g>
      <g id="Group_8646" data-name="Group 8646" transform="translate(32.135 134.815)">
        <path id="Path_1626" data-name="Path 1626" d="M84.82,237.808s-8.2-6.061-10.181,3.656c0,0,2.5,7.039,3.244,19.723a92.291,92.291,0,0,1,9.725-1.666C87.619,250.282,86.946,241.808,84.82,237.808Z" transform="translate(-74.639 -235.941)" fill="#d67c22"/>
        <path id="Path_1627" data-name="Path 1627" d="M90.363,293.086l-5.026-2.326s2.239-19.092,2.26-35.708a92.283,92.283,0,0,0-9.725,1.666,138.482,138.482,0,0,1-1.856,31.062s-3.223,9.085.339,12.865,6.734,2.471,11.229,4.36,12.033,2.326,15.073-3.051S99.487,287.416,90.363,293.086Z" transform="translate(-74.629 -231.471)" fill="#e28e33"/>
      </g>
      <path id="Path_1628" data-name="Path 1628" d="M120.54,167.2c3.465-6.236,4.85-13.856,2.079-20.784a9.9,9.9,0,0,0-.68-1.249C107.971,150,87.266,162.9,77,197.242,94.467,192.739,110.362,183.737,120.54,167.2Z" transform="translate(-41.953 -122.355)" fill="#e89442"/>
      <path id="Path_1629" data-name="Path 1629" d="M129.408,138.413a8.218,8.218,0,0,0,.185,1.577S129.541,139.387,129.408,138.413Z" transform="translate(-29.696 -123.934)" fill="#e28e33"/>
      <path id="Path_1630" data-name="Path 1630" d="M149.085,151.82s8.064.658,7.074-2.769a3.308,3.308,0,0,0-4.165-2.492s8.33-6.646,3.372-9.553-8.132,6.126-8.132,6.126.4-4.153-2.181-4.362c-1.492-.121-1.787,1.218-1.772,2.369.133.974.185,1.577.185,1.577a8.219,8.219,0,0,1-.185-1.577c-.576-4.225-2.675-15.408-8.641-14.31-7.338,1.35,3.471,17.237,3.471,17.237s-2.181-1.764-2.975.1,2.579,2.388,2.579,2.388a49.135,49.135,0,0,0-14.16,2.909,9.9,9.9,0,0,1,.68,1.249c2.771,6.928,1.386,14.548-2.079,20.784-10.178,16.541-26.073,25.543-43.543,30.046a139.389,139.389,0,0,0-4.364,20.192s-5.192,42.389-3.967,44.444c2.516,4.214,30.866,9.429,62.528,8.262a7.273,7.273,0,0,0,6.549-4.986l15.117-39.142a119.809,119.809,0,0,0,8.115-40.951C162.862,174.314,160.323,157.773,149.085,151.82Z" transform="translate(-43.567 -126.66)" fill="#e28e33"/>
      <g id="Group_8647" data-name="Group 8647" transform="translate(0 73.14)">
        <path id="Path_1631" data-name="Path 1631" d="M96.5,189.81c-1.24-2.462-4.051-4.546-10.245-3.637-8.751,1.283-15.866,13.283-19.654,21.183C78.24,203.773,88.961,198.2,96.5,189.81Z" transform="translate(-44.383 -185.955)" fill="#e28e33"/>
        <path id="Path_1632" data-name="Path 1632" d="M73.835,214.43a29.807,29.807,0,0,1,25.216-14.917,9.108,9.108,0,0,0,2.471-4.427,10.728,10.728,0,0,0-.807-6.006c-7.543,8.394-18.264,13.964-29.9,17.546-1.909,3.979-2.977,6.923-2.977,6.923S63.1,213,62.051,219.059c0,0-.527,3.03,1.315,4.133,0,0-18.157,26.453-14.21,36.923a3.741,3.741,0,0,0,2.369,4.317s2.017,4.409,5,2.847c0,0-2.455,6.062.7,7.256s6.667.735,7.894-4.409c.312-1.307.949-5.766,2.12-11.859C64.461,243.555,65.517,228.129,73.835,214.43Z" transform="translate(-48.595 -185.225)" fill="#e28e33"/>
        <path id="Path_1633" data-name="Path 1633" d="M70.562,212.452c-8.317,13.7-9.374,29.125-6.595,43.839C67.4,238.409,75.455,206.43,93.513,198.62a3.779,3.779,0,0,0,2.265-1.085A29.807,29.807,0,0,0,70.562,212.452Z" transform="translate(-45.322 -183.247)" fill="#d67c22"/>
      </g>
      <path id="Path_1634" data-name="Path 1634" d="M76.477,189.871s11-8.547,17.718-.083C94.2,189.788,89.71,183.916,76.477,189.871Z" transform="translate(-42.074 -112.794)" fill="#d67c22"/>
      <path id="Path_1635" data-name="Path 1635" d="M122.4,126.847s6.915-2.906,8.733,15.384c0,0-1.145-3.871,1.679-3.442S135,143.15,135,143.15s1.954-8.393,7.534-6.423-.994,8.551-2.774,9.85c0,0,3.847-.677,4.238,2.909,0,0-2.163-3.514-5.238-1.956,0,0,6.961-8.405,3.118-9.18s-7.059,6.581-7.059,6.581-.553-5.046-2.207-4.33-1.381,4.2-1.381,4.2S128,127.512,122.4,126.847Z" transform="translate(-31.334 -126.678)" fill="#ef9c56"/>
      <path id="Path_1638" data-name="Path 1638" d="M117.822,177.7c-.955,2.278-1.054,4.421-.221,4.785s2.281-1.187,3.238-3.465,1.054-4.422.22-4.786-2.281,1.187-3.236,3.466" transform="translate(-32.589 -115.569)" fill="#181818"/>
      <path id="Path_1639" data-name="Path 1639" d="M133.2,181.462c-.78,2.344-.716,4.489.142,4.789s2.185-1.356,2.966-3.7.716-4.489-.143-4.79-2.185,1.357-2.965,3.7" transform="translate(-28.936 -114.74)" fill="#181818"/>
      <path id="Path_1640" data-name="Path 1640" d="M129.763,170.231c-.78,2.344-.716,4.49.142,4.79s2.185-1.356,2.966-3.7.716-4.489-.143-4.79-2.185,1.356-2.965,3.7" transform="translate(-29.74 -117.366)" fill="#181818"/>
      <g id="Group_8650" data-name="Group 8650" transform="translate(81.626 75.334)">
        <path id="Path_1641" data-name="Path 1641" d="M126.858,198.945a10.737,10.737,0,0,0-7.968-2.785c-.046,0-.091.006-.138.011-4.621.378-6.04-6.648.091-8.1s13.283,1.872,15.093,6.829C135.518,199.242,131.1,202.754,126.858,198.945Z" transform="translate(-114.75 -187.733)" fill="#181818"/>
        <g id="Group_8649" data-name="Group 8649">
          <g id="Group_8648" data-name="Group 8648" clip-path="url(#clip-path)">
            <path id="Path_1642" data-name="Path 1642" d="M131.057,199.745c-.824,2.109-4.863,2.5-9.021.878s-6.861-4.649-6.038-6.758,4.863-2.5,9.021-.879S131.88,197.636,131.057,199.745Z" transform="translate(-114.493 -186.739)" fill="#d04642"/>
          </g>
        </g>
      </g>
      <path id="Path_1644" data-name="Path 1644" d="M157.217,214.508c4.831-20.212-8.737-28.552-8.737-28.552l-1.465,4.224-6.5,18.753c-2.275,13.375-10.324,6.368-10.324,6.368-.659-2.065-1.447,0-1.447,0V201.868c0-5.3-1.317-7.508-3.816-6.131S123.218,208,123.218,208c-1.777-2.686-3.224.069-3.224.069a1.8,1.8,0,0,0-1.776-1.033c-1.25.137-1.315,1.515-1.315,1.515-.395-.69-2.106-2.893-3.684,0s2.763,18.6,9.881,23.284a14.565,14.565,0,0,0,5.729,1.963C140.553,231.161,151.074,224.874,157.217,214.508Z" transform="translate(-33.558 -112.815)" fill="#e28e33"/>
      <path id="Path_1645" data-name="Path 1645" d="M125.808,228.386c7.375,1.112,18.109-1.178,24.348-10.078a26.422,26.422,0,0,0,3.988-8.969c.021-.083.035-.16.053-.243C148.054,219.463,137.533,225.749,125.808,228.386Z" transform="translate(-30.538 -107.404)" fill="#d67c22"/>
      <path id="Path_1646" data-name="Path 1646" d="M142.247,216.155a15.373,15.373,0,0,1-13.453-2.631s2.325-20.04-2.633-19.956c0,0-4.268-.95-2.939,11.865a2.173,2.173,0,0,0-3.178.859s-2.132-2.457-3.064.275c0,0-3.027-2.768-4.036.7,0,0-3.866,20.3,17.914,25.026,0,0-18.056-4.372-17.364-24.55a1.532,1.532,0,0,1,1.472-1.277c1.3-.065,2.036,1.451,2.036,1.451s.433-1.993,1.429-1.753,1.688,1.623,1.688,1.623.347-2.251,1.841-1.883A2.25,2.25,0,0,1,123.5,208s-.78-14.419,2.511-13.9,2.295,20.524,2.295,20.524S135.839,220.918,142.247,216.155Z" transform="translate(-33.608 -111.039)" fill="#d67c22"/>
      <path id="Path_1647" data-name="Path 1647" d="M145.769,189.079s-2.573,14.959-8.635,28.122C137.134,217.2,145.57,203.737,145.769,189.079Z" transform="translate(-27.889 -112.085)" fill="#d67c22"/>
    </g>
    <g id="Group_8656" data-name="Group 8656" transform="translate(776.66 211.983)">
      <path id="Path_1651" data-name="Path 1651" d="M372.965,173.106a27.453,27.453,0,0,0-11.952-5.188c-9.67-1.642-16.273,1.621-20.343,5.045A168.715,168.715,0,0,0,372.965,173.106Z" transform="translate(-327.075 -106.171)" fill="#e89442"/>
      <path id="Path_1652" data-name="Path 1652" d="M375.542,172.067a168.714,168.714,0,0,1-32.295-.143,22.507,22.507,0,0,0-5.218,6.188s-8.711,6.018-8.367,8.654,1.948,1.719,1.948,1.719c0,2.579,1.375,2.063,1.375,2.063s-2.005,10.144.745,10.26,4.786-8.182,4.786-8.182-.107,2.063,3.2,1.44,2.958-8.16,2.958-8.16c3.439-9.743,13.526-8.54,13.526-8.54,9.423.823,16.525,9.334,21.542,18.688a52.3,52.3,0,0,0,3.1-16.5A35.365,35.365,0,0,0,375.542,172.067Z" transform="translate(-329.652 -105.131)" fill="#e28e33"/>
      <path id="Path_1653" data-name="Path 1653" d="M378.854,188.356a41.513,41.513,0,0,0-5.507-10.246,52.3,52.3,0,0,1-3.1,16.5,114.331,114.331,0,0,1,9.52,25.727C381.374,200.621,378.854,188.356,378.854,188.356Z" transform="translate(-320.158 -103.685)" fill="#d67c22"/>
      <path id="Path_1654" data-name="Path 1654" d="M436.038,185.023a32.609,32.609,0,0,0,.917,22.169,12.892,12.892,0,0,1,3.7,1.255,117.571,117.571,0,0,1,4.943-19.458A34.21,34.21,0,0,0,436.038,185.023Z" transform="translate(-305.121 -102.068)" fill="#d67c22"/>
      <path id="Path_1655" data-name="Path 1655" d="M446.633,190.517c2.518,13.944,6.59,28.3,13.359,41.153C460.516,218.633,458.652,200.783,446.633,190.517Z" transform="translate(-302.295 -100.783)" fill="#e89442"/>
      <path id="Path_1656" data-name="Path 1656" d="M448.3,191.05a30.278,30.278,0,0,0-3.862-2.813,117.578,117.578,0,0,0-4.943,19.458c5.834,2.886,15.929,12.183,10.055,41.384,0,0-5.99,4.585-5.989,8.2s1.978,4.555,1.978,4.555-1.547,3.612,1.547,3.612a17.377,17.377,0,0,1,6.533,1.118c.86.428,3.095-.6,4.3,0s4.04.6,5.072-.344.343-14.013-3.267-17.967a96.754,96.754,0,0,0,1.936-16.044C454.892,219.346,450.82,204.994,448.3,191.05Z" transform="translate(-303.964 -101.316)" fill="#e28e33"/>
      <g id="Group_8655" data-name="Group 8655" transform="translate(55.703 0)">
        <g id="Group_8652" data-name="Group 8652" transform="translate(4.938 144.788)">
          <path id="Path_1657" data-name="Path 1657" d="M397.626,290.39s-1.468-2.427-2.879-.9c0,0-10.33-6.716-15.239,4.459s17.1,11.683,22.52,6.435,7.112-5.418,7.112-5.418,2.2-3.556,0-5.081c-1.63-1.128-6.043-17.754-6.989-35.52-3.051.326-6.079.764-9.076,1.351Z" transform="translate(-378.799 -230.641)" fill="#e28e33"/>
          <path id="Path_1658" data-name="Path 1658" d="M400.582,240.363s-9.991-8.806-12.7-3.556l3.07,23.4c3-.587,6.025-1.025,9.076-1.351A100.845,100.845,0,0,1,400.582,240.363Z" transform="translate(-376.675 -235.137)" fill="#d67c22"/>
        </g>
        <g id="Group_8653" data-name="Group 8653" transform="translate(49.639 139.667)">
          <path id="Path_1659" data-name="Path 1659" d="M427.521,286.239s1.468-2.427,2.879-.9c0,0,10.329-6.717,15.241,4.459s-17.1,11.683-22.52,6.435-7.113-5.419-7.113-5.419-2.2-3.556,0-5.08c1.631-1.128,6.043-17.755,6.989-35.522,3.053.326,6.079.765,9.076,1.352Z" transform="translate(-415.028 -226.49)" fill="#e28e33"/>
          <path id="Path_1660" data-name="Path 1660" d="M421.036,236.211s9.992-8.8,12.7-3.556l-3.07,23.4c-3-.587-6.024-1.027-9.076-1.352A100.861,100.861,0,0,0,421.036,236.211Z" transform="translate(-413.623 -230.986)" fill="#d67c22"/>
        </g>
        <path id="Path_1661" data-name="Path 1661" d="M398.7,135.735a3.373,3.373,0,0,0,.266.531S398.871,136.074,398.7,135.735Z" transform="translate(-369.208 -113.595)" fill="#e28e33"/>
        <path id="Path_1662" data-name="Path 1662" d="M434.551,182.775a86.723,86.723,0,0,0,8.237,4.465c-2.291-17.223-7.528-33.581-18.232-43.207a33.807,33.807,0,0,0-6.642-4.669C412.672,154.041,421.281,174.813,434.551,182.775Z" transform="translate(-365.078 -112.746)" fill="#e89442"/>
        <path id="Path_1663" data-name="Path 1663" d="M444.271,187.808c-13.27-7.962-21.879-28.734-16.636-43.411a33.243,33.243,0,0,0-6.093-2.537s16.875-16.143,7.054-22.915-15.917,19.811-15.917,19.811-3.048-6.773-6.6-4.064c-2.658,2.026-2.194,4.238-1.79,5.228.175.339.266.531.266.531a3.371,3.371,0,0,1-.266-.531c-1.7-3.322-11.234-20.979-19.375-16.064-8.974,5.418,12.361,21.5,12.361,21.5s-5.359,3.877-10.842,13.822c-8.815,15.983-17.951,47.646-5.687,104.1a102.666,102.666,0,0,0,44.146-.373c12.081-2.685,21.51-10.293,27.97-20.153,1.213-13.216,2.067-32.328-.35-50.48A86.719,86.719,0,0,1,444.271,187.808Z" transform="translate(-374.797 -117.779)" fill="#e28e33"/>
        <path id="Path_1664" data-name="Path 1664" d="M423.761,239.231a102.666,102.666,0,0,1-44.146.373q.609,2.806,1.289,5.691s9.822,2.032,35.728,0,33.019-9.313,33.019-9.313,1.145-6.692,2.08-16.9C445.271,228.938,435.842,236.546,423.761,239.231Z" transform="translate(-373.671 -94.104)" fill="#d67c22"/>
        <path id="Path_1665" data-name="Path 1665" d="M404.62,163c.084,2.12.785,3.824,1.565,3.805s1.346-1.752,1.262-3.872-.785-3.823-1.565-3.8-1.345,1.751-1.262,3.871" transform="translate(-367.825 -108.124)" fill="#181818"/>
        <path id="Path_1666" data-name="Path 1666" d="M395.538,174.94c.083,2.119.785,3.824,1.565,3.805s1.345-1.752,1.262-3.872-.785-3.824-1.565-3.805-1.345,1.752-1.262,3.872" transform="translate(-369.949 -105.332)" fill="#181818"/>
        <path id="Path_1667" data-name="Path 1667" d="M415.551,171.068c-.78.019-1.345,1.752-1.262,3.872s.785,3.824,1.565,3.805,1.345-1.752,1.261-3.872S416.331,171.049,415.551,171.068Z" transform="translate(-365.564 -105.332)" fill="#181818"/>
        <g id="Group_8654" data-name="Group 8654" transform="translate(27.004 80.363)">
          <path id="Path_1668" data-name="Path 1668" d="M398.175,187.07s9.048-6.245,21.294-1.339C419.469,185.732,407.863,178.595,398.175,187.07Z" transform="translate(-396.334 -182.922)" fill="#ba6315"/>
          <path id="Path_1669" data-name="Path 1669" d="M396.683,184.988s2.809.248,2.612,3.916A6.512,6.512,0,0,0,396.683,184.988Z" transform="translate(-396.683 -182.439)" fill="#ba6315"/>
          <path id="Path_1670" data-name="Path 1670" d="M415.033,188.111a6.507,6.507,0,0,1,2.612-3.917S414.834,184.442,415.033,188.111Z" transform="translate(-392.394 -182.625)" fill="#ba6315"/>
          <path id="Path_1671" data-name="Path 1671" d="M403.5,187.61a13.072,13.072,0,0,1,8.428,0S407.664,184.746,403.5,187.61Z" transform="translate(-395.089 -182.123)" fill="#ba6315"/>
        </g>
        <path id="Path_1672" data-name="Path 1672" d="M382.993,122.9s8.676-6.963,19.642,16.594C402.635,139.492,393.878,123.051,382.993,122.9Z" transform="translate(-372.881 -116.821)" fill="#ef9c56"/>
        <path id="Path_1673" data-name="Path 1673" d="M424.944,129.677c2.288-4.172,1.627-13.1-5.881-11.748s-11.913,20.839-11.913,20.839c-3.06-5.581-5.192-5.8-7.493-3.261a4,4,0,0,0-.634,4.955,4.186,4.186,0,0,1,2.341-4.106c4.625-.406,6.321,7.808,6.321,7.808s4.907-22.606,11.524-24.168S424.944,129.677,424.944,129.677Z" transform="translate(-369.269 -117.791)" fill="#ef9c56"/>
      </g>
    </g>
  </g>
</svg>
