<svg xmlns="http://www.w3.org/2000/svg" width="507.496" height="371" viewBox="0 0 507.496 371">
  <g id="Group_38" data-name="Group 38" transform="translate(-642.349 -320.063)">
    <g id="Background_Simple" data-name="Background Simple" transform="translate(677.451 320.063)">
      <g id="Group_22" data-name="Group 22" transform="translate(0)">
        <path id="Path_35" data-name="Path 35" d="M321.159,102.351c-44.815,46.363-68.255,49.715-125.036,75.363C149.7,198.684,103.736,239.442,88.056,290.228c-41.308,133.788,142.3,150.518,228.989,128.677,61.037-15.379,85.456-50.793,100.912-109.544,6.011-22.85,7.765-47.564,17.666-69.31,10.638-23.363,32.421-34.737,43.265-55.249C531.45,85.379,380.895,40.549,321.159,102.351Z" transform="translate(-82.088 -74.063)" fill="#92c4e8" opacity="0.2"/>
      </g>
    </g>
    <g id="Window" transform="translate(642.349 359.168)">
      <g id="Group_29" data-name="Group 29" transform="translate(0 0)">
        <g id="Group_28" data-name="Group 28">
          <g id="Group_23" data-name="Group 23">
            <path id="Path_37" data-name="Path 37" d="M52.3,114.645a7.42,7.42,0,0,1,7.4-7.4H389.922a7.421,7.421,0,0,1,7.4,7.4v23.817H52.3Z" transform="translate(-52.301 -107.247)" fill="#16364e"/>
            <path id="Path_38" data-name="Path 38" d="M104.013,127.688a6.25,6.25,0,1,1,6.249-6.25A6.257,6.257,0,0,1,104.013,127.688Zm0-11.189a4.939,4.939,0,1,0,4.939,4.939A4.945,4.945,0,0,0,104.013,116.5Z" transform="translate(-44.189 -105.83)" fill="#f0f0f0"/>
            <path id="Path_39" data-name="Path 39" d="M87.191,127.688a6.25,6.25,0,1,1,6.249-6.25A6.257,6.257,0,0,1,87.191,127.688Zm0-11.189a4.939,4.939,0,1,0,4.939,4.939A4.945,4.945,0,0,0,87.191,116.5Z" transform="translate(-47.191 -105.83)" fill="#f0f0f0"/>
            <path id="Path_40" data-name="Path 40" d="M70.368,127.688a6.25,6.25,0,1,1,6.25-6.25A6.257,6.257,0,0,1,70.368,127.688Zm0-11.189a4.939,4.939,0,1,0,4.94,4.939A4.944,4.944,0,0,0,70.368,116.5Z" transform="translate(-50.192 -105.83)" fill="#f0f0f0"/>
            <path id="Path_41" data-name="Path 41" d="M389.922,360.982H59.7a7.42,7.42,0,0,1-7.4-7.4V133.736h345.02V353.583A7.421,7.421,0,0,1,389.922,360.982Z" transform="translate(-52.301 -102.52)" fill="#1b63ab"/>
            <rect id="Rectangle_51" data-name="Rectangle 51" width="340.83" height="194.835" transform="translate(2.095 37.544)" fill="#fff"/>
            <rect id="Rectangle_52" data-name="Rectangle 52" width="138.804" height="26.318" rx="3.81" transform="translate(18.798 54.246)" fill="#4793cf"/>
            <path id="Path_42" data-name="Path 42" d="M345.654,154.457a3.316,3.316,0,0,1,3.313,3.313v17.337a3.316,3.316,0,0,1-3.313,3.311H215.831a3.316,3.316,0,0,1-3.311-3.311V157.77a3.316,3.316,0,0,1,3.311-3.313H345.654m0-1.178H215.831a4.49,4.49,0,0,0-4.49,4.491v17.337a4.49,4.49,0,0,0,4.49,4.49H345.654a4.49,4.49,0,0,0,4.491-4.49V157.77a4.491,4.491,0,0,0-4.491-4.491Z" transform="translate(-23.922 -99.033)" fill="#1b63ab"/>
          </g>
          <g id="Group_25" data-name="Group 25" transform="translate(18.797 91.171)">
            <g id="Group_24" data-name="Group 24">
              <path id="Path_43" data-name="Path 43" d="M91.326,185.791a21.9,21.9,0,1,1-21.9,21.9,21.92,21.92,0,0,1,21.9-21.9m0-1.178A23.074,23.074,0,1,0,114.4,207.687a23.074,23.074,0,0,0-23.074-23.074Z" transform="translate(-68.252 -184.613)" fill="#1b63ab"/>
              <path id="Path_44" data-name="Path 44" d="M107.108,212.657a19.039,19.039,0,0,1-33.483,0,30.16,30.16,0,0,1,33.483,0Z" transform="translate(-67.293 -180.514)" fill="#4793cf" opacity="0.4"/>
              <circle id="Ellipse_20" data-name="Ellipse 20" cx="8.483" cy="8.483" r="8.483" transform="translate(14.591 8.074)" fill="#4793cf" opacity="0.4"/>
            </g>
            <path id="Path_45" data-name="Path 45" d="M354.867,217.85H130.273a11.861,11.861,0,0,1-11.861-11.861h0a11.861,11.861,0,0,1,11.861-11.861H354.867a11.861,11.861,0,0,1,11.861,11.861h0A11.861,11.861,0,0,1,354.867,217.85Z" transform="translate(-59.302 -182.915)" fill="#92c4e8" opacity="0.4"/>
          </g>
          <g id="Group_27" data-name="Group 27" transform="translate(18.797 154.021)">
            <g id="Group_26" data-name="Group 26">
              <path id="Path_46" data-name="Path 46" d="M91.326,239.124a21.9,21.9,0,1,1-21.9,21.9,21.92,21.92,0,0,1,21.9-21.9m0-1.178A23.074,23.074,0,1,0,114.4,261.02a23.073,23.073,0,0,0-23.074-23.074Z" transform="translate(-68.252 -237.946)" fill="#1b63ab"/>
              <path id="Path_47" data-name="Path 47" d="M107.108,265.989a19.038,19.038,0,0,1-33.483,0,30.166,30.166,0,0,1,33.483,0Z" transform="translate(-67.293 -233.847)" fill="#4793cf" opacity="0.4"/>
              <circle id="Ellipse_21" data-name="Ellipse 21" cx="8.483" cy="8.483" r="8.483" transform="translate(14.591 8.074)" fill="#4793cf" opacity="0.4"/>
            </g>
            <rect id="Rectangle_53" data-name="Rectangle 53" width="248.315" height="23.722" rx="10.065" transform="translate(59.11 11.213)" fill="#92c4e8" opacity="0.4"/>
          </g>
        </g>
        <path id="Path_48" data-name="Path 48" d="M275.082,283.532A110.168,110.168,0,0,0,277.191,305a44.29,44.29,0,0,0-21.671,37.981,43.8,43.8,0,0,0,1.237,10.394h96.9a7.421,7.421,0,0,0,7.4-7.4V176.33A109.986,109.986,0,0,0,275.082,283.532Z" transform="translate(-16.039 -94.92)" opacity="0.1"/>
      </g>
    </g>
    <g id="Character" transform="translate(872.565 413.784)">
      <g id="Group_36" data-name="Group 36" transform="translate(0 0)">
        <g id="Group_35" data-name="Group 35">
          <g id="Group_33" data-name="Group 33">
            <g id="Group_30" data-name="Group 30">
              <circle id="Ellipse_22" data-name="Ellipse 22" cx="98.033" cy="98.033" r="98.033" transform="translate(0 138.64) rotate(-45)" fill="#1b63ab"/>
              <circle id="Ellipse_23" data-name="Ellipse 23" cx="89.368" cy="89.368" r="89.368" transform="translate(12.716 138.512) rotate(-45)" fill="#fff"/>
            </g>
            <g id="Group_32" data-name="Group 32" transform="translate(76.929 54.844)">
              <path id="Path_49" data-name="Path 49" d="M344.962,220.249l-5.7,7.3s-5.01,3.8-6.9,7.051c-2.218,2.2-4.249,4.442-6.254,6.807a97.135,97.135,0,0,0-6.406,8.5,50.065,50.065,0,0,0-5.329,10.125,21.453,21.453,0,0,0-1.425,7.059,13.159,13.159,0,0,0,.891,5.007,11.826,11.826,0,0,0,3.739,4.948l1.252.949,1.874.354a63.478,63.478,0,0,0,11.221,1.1c.08,0,1.407-.124,1.486-.124l-1.5-14.91c-1.266.048-3.973.247-5.215.222.044-.231.092-.465.151-.7a44.881,44.881,0,0,1,3.072-8.237c1.319-2.857,2.839-5.722,4.42-8.583,1.386-2.516,2.878-5.052,4.333-7.526l7.053-4.451,4.145-7.346Zm-18.4,46.551a1.757,1.757,0,0,1-.044-.341,1.264,1.264,0,0,1,.1.271C326.705,267.009,326.616,267.027,326.564,266.8Z" transform="translate(-312.939 -196.544)" fill="#7f3e3b"/>
              <path id="Path_50" data-name="Path 50" d="M377.415,233.794c.179-.905-.108-.966-.339-.963a1.487,1.487,0,0,0-.882.988,16.227,16.227,0,0,1-4.234,4.458c-.232.167-.458.337-.706.5a13.6,13.6,0,0,1-6.947,2.287c.046.247.092.495.13.742.091.58.154,1.157.194,1.729.264,3.759-.715,7.251-4.947,9.247-.016.235-.576.48-.765.647-1.182,1.051-2.824,3.361-2.806,5.361.013,1.538,1.44,2.747,3.132,4.207l2.382,1.6,3.229-.308c9.913-2.911,14.534-11.968,14.322-12.638C376.613,247.453,376.648,240.14,377.415,233.794Z" transform="translate(-305.235 -194.298)" fill="#7f3e3b"/>
              <path id="Path_51" data-name="Path 51" d="M403.911,252.4s-.665-.121-1.8-.3c-2.347-.376-12.864-2.755-17.941-3.212l0,.009c-1.194,2.5-5.039,8.63-14.952,11.539l-2.452.582-2.309-1.227c-1.692-1.461-2.56-2.981-2.573-4.519-.018-2,1.387-3.674,2.569-4.726a.852.852,0,0,0,.2-.272,1.391,1.391,0,0,1,0-.5c-.739.093-10.136,1.523-10.935,1.65-12.233,1.941-26.006,7.219-26.006,7.219l.1.846,1.7,14.848.643,5.618s4.724-.528,10.9-1.618c-1.693,15.017-2.015,36.768,3.131,64.735,5.423-.1,20.118-.392,20.119-.377l34.949-.656c.144-2.351-.113-7.231-.369-13.9l-.315-10.295c-.19-9.1-.151-20.01.665-31.733q.193-2.766.448-5.593l.007.007c7.143,7.727,14.3,15.105,14.3,15.105l3.375-3.255c4.327-2.092,7.733-5.822,10.7-10.318l3.968-3.824S413.572,254.025,403.911,252.4Z" transform="translate(-310.302 -191.434)" fill="#faa633"/>
              <path id="Path_52" data-name="Path 52" d="M384.16,270.644a17.494,17.494,0,0,0,2.3,6.947l2.714,4.64q.193-2.766.449-5.592C387.758,274.622,385.895,272.583,384.16,270.644Z" transform="translate(-300.231 -187.551)" opacity="0.3"/>
              <path id="Path_53" data-name="Path 53" d="M388.869,275.738l-.007-.007q-.253,2.821-.449,5.592l0,0C388.544,279.484,388.7,277.616,388.869,275.738Z" transform="translate(-299.472 -186.643)" opacity="0.3"/>
              <path id="Path_54" data-name="Path 54" d="M363.066,239.817c.046.249.092.495.131.742-.038-.247-.084-.494-.13-.742Z" transform="translate(-303.995 -193.052)" fill="#7f3e3b"/>
              <path id="Path_55" data-name="Path 55" d="M363.371,242.176c-.04-.572-.1-1.148-.194-1.729C363.265,241.027,363.336,241.6,363.371,242.176Z" transform="translate(-303.975 -192.939)" opacity="0.2"/>
              <path id="Path_56" data-name="Path 56" d="M370.72,237.452c-.232.167-.458.337-.706.5a13.6,13.6,0,0,1-6.947,2.287c.046.249.092.495.13.742.091.581.154,1.157.194,1.729,0,.034.009.067.012.1A11.86,11.86,0,0,0,370.72,237.452Z" transform="translate(-303.995 -193.474)" fill="#7f3e3b"/>
              <path id="Path_57" data-name="Path 57" d="M386.375,250.8a2.635,2.635,0,0,0-1.953-2l-2.449-.583a1.463,1.463,0,0,0-1.609.687,1.277,1.277,0,0,0-.079.113c-1.194,2.5-5.039,8.63-14.952,11.539l-.771.184h0l-1.682.4-2.309-1.227c-1.692-1.461-2.56-2.981-2.573-4.519-.018-2,1.387-3.674,2.569-4.725a2.243,2.243,0,0,0,.338-.437c.107-.271.085-.407-.1-.526-2.594-1.874-8.427,1.016-8.658,1.518a9.923,9.923,0,0,0-.739.8,8.11,8.11,0,0,0-1.884,6.247,12.6,12.6,0,0,0,5.971,9.148.34.34,0,0,0,.169.044.345.345,0,0,0,.346-.37,7.039,7.039,0,0,1,4.363-6.5l2.066,1.1c-8.868,36.374-2.853,79.958-2.686,81.139.436-.007.684-.011.684-.008,0-.015.013-.027.011-.044-.065-.441-6.253-44.412,2.68-80.981l2.165-.513c2.509,3.065,1.319,7.614,1.307,7.661a.345.345,0,0,0,.107.354.349.349,0,0,0,.227.085.339.339,0,0,0,.139-.029c.471-.205,11.616-5.093,15.513-9.747a18.449,18.449,0,0,0,3.8-7.657A2.6,2.6,0,0,0,386.375,250.8Z" transform="translate(-306.422 -191.56)" fill="#fff"/>
              <path id="Path_58" data-name="Path 58" d="M370.72,237.452c-.232.167-.458.337-.706.5a13.6,13.6,0,0,1-6.947,2.287c.046.249.092.495.13.742.091.581.154,1.157.194,1.729,0,.034.009.067.012.1A11.86,11.86,0,0,0,370.72,237.452Z" transform="translate(-303.995 -193.474)" opacity="0.2"/>
              <path id="Path_59" data-name="Path 59" d="M355.371,215.276a21.832,21.832,0,0,1,4.325-5.569,8.53,8.53,0,0,1-2-2.059c-1.855.87-3.61,3.336-4.519,8.847a14.2,14.2,0,0,0-.1,3.947c.357-1.037.762-2.061,1.219-3.056Z" transform="translate(-305.793 -198.792)" fill="#263238"/>
              <path id="Path_60" data-name="Path 60" d="M377.563,229.89c5.318-6.155,1.936-13.994-1.175-15.758.575-8.228-11.261-9.3-16.4-4.278a21.831,21.831,0,0,0-4.325,5.569l-1.071,2.109c-.456.995-.861,2.019-1.219,3.056a36.178,36.178,0,0,0-2,11.582A13.471,13.471,0,0,0,365.154,245.7h0a13.6,13.6,0,0,0,6.947-2.287c.247-.163.474-.332.706-.5a16.227,16.227,0,0,0,4.234-4.458C379.691,234.226,379,232.093,377.563,229.89Z" transform="translate(-306.082 -198.94)" fill="#7f3e3b"/>
              <path id="Path_61" data-name="Path 61" d="M353.569,215.617a.486.486,0,0,0,.075.686.462.462,0,0,0,.57.015.468.468,0,0,0,.114-.091,4.064,4.064,0,0,1,3.222-1.619.494.494,0,0,0,.518-.454.488.488,0,0,0-.451-.52,4.9,4.9,0,0,0-2.332.574A5.251,5.251,0,0,0,353.569,215.617Z" transform="translate(-305.709 -197.724)" fill="#263238"/>
              <path id="Path_62" data-name="Path 62" d="M365.352,227.315a.246.246,0,0,0-.345,0,6.868,6.868,0,0,1-5.859,1.461.243.243,0,1,0-.1.477,7.867,7.867,0,0,0,1.705.157,7.092,7.092,0,0,0,4.59-1.745A.244.244,0,0,0,365.352,227.315Z" transform="translate(-304.746 -195.296)" fill="#263238"/>
              <path id="Path_63" data-name="Path 63" d="M359.812,220.161s-2.951,4.3-5.521,6.143c1.127,1.624,3.721,1.5,3.721,1.5Z" transform="translate(-305.561 -196.559)" fill="#630f0f"/>
              <path id="Path_64" data-name="Path 64" d="M355.565,220.849c.533.107,1.12-.463,1.309-1.272s-.087-1.551-.619-1.657-1.118.463-1.309,1.273S355.032,220.744,355.565,220.849Z" transform="translate(-305.455 -196.961)" fill="#263238"/>
              <path id="Path_65" data-name="Path 65" d="M363.378,222.407c.533.106,1.12-.463,1.309-1.273s-.086-1.55-.619-1.657-1.118.464-1.309,1.273S362.846,222.3,363.378,222.407Z" transform="translate(-304.06 -196.684)" fill="#263238"/>
              <path id="Path_66" data-name="Path 66" d="M373.919,213.338c-.324.019-.686.029-1.077.031a22.006,22.006,0,0,0-1.4,5.122,13.632,13.632,0,0,0,2.574,10.637c2.417,4.1,5.51,3.99,8.191.863,4.318-4.143,8.474-12.4-.111-18.892C380.749,212.252,378.214,213.087,373.919,213.338Z" transform="translate(-302.536 -198.176)" fill="#263238"/>
              <path id="Path_67" data-name="Path 67" d="M380.008,225.115c-1.947-.8-4.152.139-5.905,1.563a11.756,11.756,0,0,0-2.43,2.675c-1.667,2.6-1.075,5.636,1.909,5.9a4.817,4.817,0,0,0,.514.021c.231,0,.469-.024.706-.047a10.186,10.186,0,0,0,6.215-2.947,4.769,4.769,0,0,0,1.277-4.735A3.847,3.847,0,0,0,380.008,225.115Z" transform="translate(-302.623 -195.727)" fill="#7f3e3b"/>
              <path id="Path_68" data-name="Path 68" d="M359.138,211.049c4.31,3.245,12.158,4.3,16.4,4.277.391,0,.753-.012,1.077-.031,4.3-.251,6.83-1.087,8.178-2.24,4.981-4.264-6.373-12.922-6.373-12.922s1.266,3.108-1.374,3.964-21.252-6.065-20.935,1.79a5.956,5.956,0,0,0,1.025,3.1A8.557,8.557,0,0,0,359.138,211.049Z" transform="translate(-305.236 -200.133)" fill="#263238"/>
              <path id="Path_69" data-name="Path 69" d="M341.823,328.97s-.317,2.748-.812,7.382a89.474,89.474,0,0,0,55.724.52c.127-5.593.2-8.936.2-8.936l-35,.656-.682.013Z" transform="translate(-307.93 -177.328)" fill="#263238"/>
              <g id="Group_31" data-name="Group 31" transform="translate(75.233 90.625)">
                <path id="Path_70" data-name="Path 70" d="M426.557,290.6a12.047,12.047,0,0,0-1.282-4.3l-.349-.645-.19-.321a95.486,95.486,0,0,0-5.415-8.294l-10.7,10.318c1.425,1.763,2.8,3.541,4.072,5.352a8.621,8.621,0,0,1-.905,1.7,39.432,39.432,0,0,1-5.834,6.493,171.009,171.009,0,0,1-14.49,11.7l-1.633.222-6.578.894-6.466,4.365,4.251,8.657L386.379,324a20.243,20.243,0,0,0,3.76-.883c1.814-.622,3.775-1.642,4.63-3.278a98.209,98.209,0,0,0,9.189-4.2,90.984,90.984,0,0,0,9.3-5.52c1.52-1.045,3.017-2.171,4.5-3.413a34.847,34.847,0,0,0,4.367-4.274,19.852,19.852,0,0,0,3.841-6.562A12.819,12.819,0,0,0,426.557,290.6Zm-13.772,1.855c-.006-.06-.022-.124-.024-.176,0-.285.1-.387.1-.219A1.355,1.355,0,0,1,412.785,292.452Z" transform="translate(-376.781 -277.036)" fill="#7f3e3b"/>
              </g>
            </g>
          </g>
          <g id="Group_34" data-name="Group 34" transform="translate(16.288 151.55)">
            <circle id="Ellipse_24" data-name="Ellipse 24" cx="32.348" cy="32.348" r="32.348" transform="matrix(0.16, -0.987, 0.987, 0.16, 0, 63.861)" fill="#16364e"/>
            <path id="Path_71" data-name="Path 71" d="M313.909,313.812H299.153V299.054a3.028,3.028,0,0,0-6.056,0v14.758H278.341a3.028,3.028,0,1,0,0,6.056H293.1v14.756a3.028,3.028,0,0,0,6.056,0V319.868h14.756a3.028,3.028,0,0,0,0-6.056Z" transform="translate(-259.013 -279.727)" fill="#fff"/>
          </g>
        </g>
        <path id="Path_72" data-name="Path 72" d="M364.838,216.909a3.714,3.714,0,0,1,2.681,2.186.485.485,0,0,0,.453.285.472.472,0,0,0,.193-.045.487.487,0,0,0,.242-.646,4.686,4.686,0,0,0-3.445-2.748.488.488,0,0,0-.124.968Z" transform="translate(-226.825 -142.468)" fill="#263238"/>
      </g>
    </g>
  </g>
</svg>
